<svg xmlns="http://www.w3.org/2000/svg" width="900" height="455" viewBox="0 0 900 455" role="img" aria-labelledby="title desc">
  <title id="title">Luiz Paes profile terminal</title>
  <desc id="desc">A terminal-style profile card for Luiz Paes, Software Developer.</desc>
  <defs>
    <style>
      .frame { fill: #0e0e0e; stroke: #3d494c; }
      .bar { fill: #201f1f; stroke: #3d494c; }
      .text { font-family: Arial, sans-serif; fill: #bcc9cd; }
      .headline { font-family: Arial, sans-serif; fill: #e5e2e1; font-weight: 800; }
      .accent { fill: #06b6d4; }
      .muted { fill: #7d8b90; }
      .badge-bg { fill: #111827; stroke: #1f2937; }
      .badge-text { font-family: Arial, sans-serif; fill: #f4f7f8; font-size: 11px; font-weight: 700; }
    </style>
  </defs>

  <rect class="frame" x="1" y="1" width="898" height="453"/>
  <rect class="bar" x="1" y="1" width="898" height="48"/>
  <circle class="muted" cx="28" cy="25" r="5"/>
  <circle class="muted" cx="46" cy="25" r="5"/>
  <circle class="muted" cx="64" cy="25" r="5"/>
  <text class="text" x="854" y="30" text-anchor="end" font-size="13">profile.sh</text>

  <text class="headline" x="450" y="110" text-anchor="middle" font-size="34">Luiz Paes</text>
  <line x1="45" y1="132" x2="855" y2="132" stroke="#3d494c"/>
  <text class="headline" x="450" y="178" text-anchor="middle" font-size="19">Software Developer</text>
  <text class="text" x="450" y="218" text-anchor="middle" font-size="12" font-style="italic">Backend • Microservices • DevOps • AI-Agent Integration</text>
  <line x1="45" y1="248" x2="855" y2="248" stroke="#3d494c" stroke-width="4"/>

  <text class="text" x="450" y="292" text-anchor="middle" font-size="16">
    <tspan x="450">I build reliable web applications, backend services, and developer-focused solutions with a focus on</tspan>
    <tspan x="450" dy="23">scalability and technical precision.</tspan>
  </text>

  <g transform="translate(80 336)">
    <g>
      <rect class="badge-bg" width="112" height="22"/>
      <ellipse class="accent" cx="13" cy="11" rx="8" ry="5"/>
      <ellipse fill="#111827" cx="13" cy="11" rx="5" ry="3"/>
      <text class="badge-text" x="29" y="15">ORACLE SQL</text>
    </g>
    <g transform="translate(124 0)">
      <rect class="badge-bg" width="88" height="22"/>
      <path class="accent" d="M13 3 21 8v8l-8 5-8-5V8z"/>
      <text class="badge-text" x="30" y="15">NODE.JS</text>
    </g>
    <g transform="translate(224 0)">
      <rect class="badge-bg" width="84" height="22"/>
      <path class="accent" d="M8 7c6-6 15-2 13 6-2 6-9 8-15 3 5 1 9-1 11-4-4 2-8 1-9-5z"/>
      <text class="badge-text" x="29" y="15">NESTJS</text>
    </g>
    <g transform="translate(320 0)">
      <rect class="badge-bg" width="136" height="22"/>
      <path class="accent" d="M13 3 21 8v9l-8 4-8-4V8z"/>
      <circle fill="#111827" cx="13" cy="12" r="4"/>
      <text class="badge-text" x="29" y="15">MICROSERVICES</text>
    </g>
    <g transform="translate(468 0)">
      <rect class="badge-bg" width="84" height="22"/>
      <path class="accent" d="M5 6h5l3 4 3-4h5l-4 12H9z"/>
      <text class="badge-text" x="29" y="15">DEVOPS</text>
    </g>
    <g transform="translate(564 0)">
      <rect class="badge-bg" width="84" height="22"/>
      <path class="accent" d="M6 10h14v5l-4 4H9l-3-4z"/>
      <rect class="accent" x="8" y="6" width="4" height="3"/>
      <rect class="accent" x="13" y="6" width="4" height="3"/>
      <text class="badge-text" x="29" y="15">DOCKER</text>
    </g>
    <g transform="translate(660 0)">
      <rect class="badge-bg" width="80" height="22"/>
      <path class="accent" d="M13 3c4 5 6 10 8 16H5c2-6 4-11 8-16z"/>
      <text class="badge-text" x="29" y="15">LINUX</text>
    </g>
  </g>

  <g transform="translate(391 370)">
    <g>
      <rect class="badge-bg" width="118" height="22"/>
      <path class="accent" d="M13 4a8 8 0 1 1 0 16 8 8 0 0 1 0-16zm0 3a5 5 0 1 0 0 10 5 5 0 0 0 0-10z"/>
      <text class="badge-text" x="29" y="15">AI AGENTS</text>
    </g>
  </g>

  <text class="text" x="450" y="424" text-anchor="middle" font-size="12">(C) 2026 luizpaes.dev</text>
</svg>
